<svg xmlns="http://www.w3.org/2000/svg" width="64" height="64" viewBox="0 0 64 64" role="img" aria-label="Text file icon">
  <path d="M14 8h27l13 13v35a6 6 0 0 1-6 6H14a6 6 0 0 1-6-6V14a6 6 0 0 1 6-6z" fill="#f5f7fb" stroke="#5f6b7a" stroke-width="2"/>
  <path d="M41 8v12a2 2 0 0 0 2 2h11" fill="#dce3ef" stroke="#5f6b7a" stroke-width="2"/>
  <rect x="17" y="30" width="30" height="3" rx="1.5" fill="#7d8898"/>
  <rect x="17" y="37" width="24" height="3" rx="1.5" fill="#7d8898"/>
  <rect x="17" y="44" width="18" height="3" rx="1.5" fill="#7d8898"/>
  <rect x="15" y="14" width="20" height="10" rx="3" fill="#2f5bd1"/>
  <text x="25" y="21" text-anchor="middle" font-size="7" font-family="Arial, sans-serif" fill="#ffffff">TXT</text>
</svg>
